<svg height="64" viewBox="-8.19 -8.19 64 64.000002" width="64" xmlns="http://www.w3.org/2000/svg" xmlns:xlink="http://www.w3.org/1999/xlink"><linearGradient id="a" gradientUnits="userSpaceOnUse" x1="16.059999" x2="16.059999" y1="10.61" y2="53.939999"><stop offset="0" stop-color="#0052cc"/><stop offset="1" stop-color="#2684ff"/></linearGradient><linearGradient id="b" x1="15.91" x2="15.91" xlink:href="#a" y1="-19.269997" y2="24.060002"/><linearGradient id="c" gradientUnits="userSpaceOnUse" x1="16.059999" x2="16.059999" xlink:href="#a" y1="-19.269997" y2="24.060002"/><g transform="matrix(.87025516 0 0 .87025516 -3.848844 17.805955)"><path d="m61.56 11.930003h-15.29a2 2 0 0 0 -2 1.7 12.57 12.57 0 0 1 -12.46 10.83l4.14 18.91a31.81 31.81 0 0 0 27.61-29.3 2 2 0 0 0 -2-2.14zm-26.46-.48 22-18.91a2 2 0 0 0 0-3l-22-18.94a2 2 0 0 0 -3.29 1.52v37.81a2 2 0 0 0 3.29 1.52z" fill="#2684ff"/><path d="m.3 16.060003a31.81 31.81 0 0 0 31.51 27.61v-19.21a12.56 12.56 0 0 1 -12.56-12.53z" fill="url(#c)"/><path d="m0 11.630003v.3h19.25a12.56 12.56 0 0 1 12.56-12.53l-4.13-18.91a31.79 31.79 0 0 0 -27.68 31.14" fill="url(#b)"/></g></svg>