<svg fill="#000000" xmlns="http://www.w3.org/2000/svg"  viewBox="0 0 64 64" width="64px" height="64px"><path d="M 15.660156 10 C 12.545623 10 10 12.546672 10 15.660156 L 10 48.339844 C 10 51.454118 12.545882 54 15.660156 54 L 48.339844 54 C 51.454377 54 54 51.453328 54 48.339844 L 54 24.005859 A 1.0001 1.0001 0 0 0 52.599609 23.087891 C 46.202164 25.879689 39.480996 22.733733 37.957031 17.708984 A 1.0001 1.0001 0 0 0 37 17 L 32 17 A 1.0001 1.0001 0 0 0 31 18 L 31 38 C 31 39.192111 30.513281 39.84321 29.867188 40.320312 C 29.221094 40.797416 28.343277 41 28 41 C 27.57322 41 26.729503 40.853583 26.111328 40.429688 C 25.493153 40.005791 25 39.395355 25 38 C 25 36.689696 25.682976 36.058102 26.498047 35.589844 C 27.313117 35.121586 28.146484 34.988281 28.146484 34.988281 A 1.0001 1.0001 0 0 0 29 34 L 29 29 A 1.0001 1.0001 0 0 0 28 28 C 24.217571 28 21.604289 29.673695 20.070312 31.755859 C 18.536336 33.838024 18 36.248274 18 38 C 18 39.488023 18.357343 41.891176 19.810547 44.044922 C 21.263751 46.198668 23.907552 48 28 48 C 31.995355 48 34.620723 46.159968 36.095703 44.052734 C 37.570683 41.9455 38 39.684518 38 38.378906 L 38 28.142578 C 39.477815 29.363958 41.202899 30.448553 43.798828 30.980469 A 1.0008944 1.0008944 0 0 0 44.201172 29.019531 C 40.97732 28.358952 39.30871 27.039669 37.738281 25.324219 A 1.0001 1.0001 0 0 0 36 26 L 36 38.378906 C 36 39.179295 35.631051 41.228984 34.457031 42.90625 C 33.283011 44.583516 31.408645 46 28 46 C 24.464448 46 22.608546 44.615035 21.46875 42.925781 C 20.328954 41.236527 20 39.139977 20 38 C 20 36.682726 20.463664 34.591992 21.679688 32.941406 C 22.755857 31.480652 24.415737 30.357488 27 30.105469 L 27 33.318359 C 26.557094 33.424033 26.256741 33.421843 25.501953 33.855469 C 24.317024 34.536211 23 35.906304 23 38 C 23 39.950645 23.901894 41.340475 24.980469 42.080078 C 26.059044 42.819681 27.21378 43 28 43 C 28.885723 43 30.008031 42.702584 31.054688 41.929688 C 32.101343 41.15679 33 39.807889 33 38 L 33 19 L 36.359375 19 C 38.511594 24.48125 45.328054 27.516044 52 25.373047 L 52 48.339844 C 52 50.372359 50.37331 52 48.339844 52 L 15.660156 52 C 13.626431 52 12 50.373569 12 48.339844 L 12 15.660156 C 12 13.627641 13.62669 12 15.660156 12 L 48.339844 12 C 50.372359 12 52 13.62669 52 15.660156 L 52 19 A 1.0001 1.0001 0 1 0 54 19 L 54 15.660156 C 54 12.545623 51.453328 10 48.339844 10 L 15.660156 10 z"/></svg>